<?xml version="1.0" encoding="utf-8"?>
<!-- Generator: Adobe Illustrator 26.0.3, SVG Export Plug-In . SVG Version: 6.00 Build 0)  -->
<svg version="1.1" id="Layer_1" xmlns="http://www.w3.org/2000/svg" xmlns:xlink="http://www.w3.org/1999/xlink" x="0px" y="0px"
	 viewBox="0 0 612 792" style="enable-background:new 0 0 612 792;" xml:space="preserve">
<style type="text/css">
	.st0{fill:none;stroke:#000000;stroke-width:3;stroke-miterlimit:10;}
	.st1{fill:none;stroke:#000000;stroke-width:3;stroke-linecap:round;stroke-miterlimit:10;}
</style>
<path class="st0" d="M358.4,190.4c-15.4,0-29.6,5-41.2,13.4c-8.5,6.2-15,14.2-19.2,23.2c-9.7,20.6-6.6,45,7.1,63.1l52.6,69.6
	c0.4,0.5,1.1,0.5,1.5,0l52.6-69.6c13.7-18.2,16.8-42.5,7.1-63.1c-4.2-9-10.7-17.1-19.2-23.2C388,195.3,373.8,190.4,358.4,190.4z"/>
<path class="st0" d="M377.9,219.1c-5.5,1.9-13.8,11-19.5,14.3c-5.7-3.3-14-12.4-19.5-14.3c-18.5-6.3-31.1,10.6-31.1,32.2
	c0,19,36.6,54.3,47.7,64.6c1.7,1.6,4.3,1.6,5.9,0c11.1-10.3,47.7-45.6,47.7-64.6C409.1,229.7,396.5,212.8,377.9,219.1z"/>
<path class="st1" d="M326.2,329.1h-24.6c-2.2,0-4.2,1.4-5,3.5L280.2,376c-1.3,3.5,1.3,7.2,5,7.2h73.2h73.2c3.7,0,6.3-3.7,5-7.2
	l-16.4-43.5c-0.8-2.1-2.8-3.5-5-3.5h-24.6"/>
</svg>
