<svg width="77" height="69" viewBox="0 0 77 69" fill="none" xmlns="http://www.w3.org/2000/svg">
<path d="M8.84919 55.5399C7.78124 55.5399 6.99942 54.5887 6.95436 53.3629C6.93295 52.7786 6.92456 43.8672 6.92456 43.7795C6.92456 23.4993 21.4039 7 39.2016 7C46.4987 7 53.6504 9.85338 59.339 15.0345C64.9398 20.1354 68.9373 27.2964 70.5949 35.1986C70.8519 36.4244 70.1885 37.6553 69.1131 37.9484C68.0391 38.2406 68.1815 37.2256 67.9246 36C64.8739 21.4591 52.0648 10 38.9246 10C23.3352 10 9.92456 26.236 9.92456 44C9.92456 44.9812 9.90944 52.4645 9.92456 53C9.96004 54.2551 10.0334 55.4935 8.93201 55.5399C8.93201 55.5399 8.87435 55.5399 8.84919 55.5399Z" fill="black"/>
<rect y="54" width="77" height="15" rx="7" fill="black"/>
<rect x="3" y="57" width="71" height="9" rx="4.5" fill="white"/>
<path d="M43 4.5C43 6.3365 41.3109 8 39 8C36.6891 8 35 6.3365 35 4.5C35 2.6635 36.6891 1 39 1C41.3109 1 43 2.6635 43 4.5Z" stroke="black" stroke-width="2"/>
</svg>
