<svg width="38" height="67" viewBox="0 0 38 67" fill="none" xmlns="http://www.w3.org/2000/svg">
<path d="M18.9976 0C8.50382 0 0 9.55151 0 21.3341C0 24.9943 0.819028 28.4358 2.26513 31.4398C4.67742 36.4707 12.9253 50.8418 16.8733 57.6591C18.7801 59.6933 20.6485 58.1257 21.1284 57.6591C25.0508 50.8564 33.241 36.5437 35.6725 31.5856C37.1634 28.5452 38.008 25.0454 38.008 21.3341C37.9953 9.55151 29.4914 0 18.9976 0ZM32.7036 30.1565C30.3936 34.6042 22.2417 49.4273 19.7335 53.9843C19.2088 54.1957 18.7161 54.1666 18.2618 53.9843C15.7727 49.4419 7.67199 34.6698 5.34928 30.2732C3.96077 27.6411 3.16094 24.5715 3.16094 21.2977C3.16094 11.5274 10.2507 3.60187 18.9912 3.60187C27.7318 3.60187 34.8215 11.5201 34.8215 21.2977C34.8279 24.5277 34.0537 27.5536 32.7036 30.1565Z" fill="black"/>
<path d="M18.9977 30.7036C14.4674 30.7036 10.7818 26.5039 10.7818 21.3417C10.7818 16.1795 14.4674 11.9797 18.9977 11.9797C23.5279 11.9797 27.2136 16.1795 27.2136 21.3417C27.2136 26.5039 23.5279 30.7036 18.9977 30.7036ZM18.9977 15.4868C16.1631 15.4868 13.8595 18.1117 13.8595 21.3417C13.8595 24.5717 16.1631 27.1965 18.9977 27.1965C21.8323 27.1965 24.1358 24.5717 24.1358 21.3417C24.1358 18.1117 21.8323 15.4868 18.9977 15.4868ZM18.9145 66.5692C8.45908 66.5692 0.575928 62.2236 0.575928 56.4563C0.575928 53.095 3.28896 50.0983 8.02397 48.239C8.75982 47.9474 9.56605 48.3922 9.81559 49.2307C10.0715 50.0691 9.68122 50.9878 8.94538 51.2722C5.52209 52.6211 3.39774 54.6043 3.39774 56.4563C3.39774 59.7154 9.7708 63.3538 18.9145 63.3538C28.0582 63.3538 34.4312 59.7154 34.4312 56.4563C34.4312 54.6043 32.3005 52.6211 28.8772 51.2722C28.1414 50.9806 27.751 50.0691 28.007 49.2307C28.2629 48.3922 29.0628 47.9474 29.7986 48.239C34.5336 50.0983 37.2531 53.1023 37.2531 56.4636C37.2531 62.2163 29.3699 66.5692 18.9145 66.5692Z" fill="black"/>
</svg>
