<svg width="68" height="78" viewBox="0 0 68 78" fill="none" xmlns="http://www.w3.org/2000/svg">
<path d="M24.1723 51.423C24.0567 51.0695 23.7329 50.8318 23.3667 50.8318C23.0005 50.8318 22.6759 51.0695 22.5611 51.423L19.1622 61.7958C19.0135 62.2487 19.2539 62.738 19.6992 62.8893C20.1479 63.0423 20.6254 62.795 20.7741 62.343L21.4293 60.3402H25.3033L25.9593 62.3421C26.0782 62.7043 26.4096 62.9333 26.7657 62.9333C26.854 62.9333 26.945 62.9187 27.0342 62.8884C27.4786 62.7371 27.7199 62.2479 27.5712 61.7949L24.1723 51.423ZM21.9961 58.6114L23.3667 54.4294L24.7373 58.6114H21.9961Z" fill="black"/>
<path d="M58.4168 50.8318H56.0271C55.5865 50.8318 55.2305 51.2191 55.2305 51.6963V62.0701C55.2305 62.5473 55.5865 62.9346 56.0271 62.9346H58.4168C59.3727 62.9346 60.2219 62.4661 60.8066 61.7399C61.2965 61.1313 61.6032 60.3463 61.6032 59.4767V54.2897C61.6032 53.4209 61.2965 52.6351 60.8066 52.0265C60.2219 51.3003 59.3727 50.8318 58.4168 50.8318ZM60.01 59.4767C60.01 60.4302 59.2947 61.2056 58.4168 61.2056H56.8237V52.5608H58.4168C59.2947 52.5608 60.01 53.3362 60.01 54.2897V59.4767Z" fill="black"/>
<path d="M53.1061 62.0701C53.1061 61.5929 52.7501 61.2056 52.3095 61.2056H48.3266V57.7477H52.3095C52.7501 57.7477 53.1061 57.3604 53.1061 56.8832C53.1061 56.406 52.7501 56.0187 52.3095 56.0187H48.3266V52.5608H52.3095C52.7501 52.5608 53.1061 52.1735 53.1061 51.6963C53.1061 51.2191 52.7501 50.8318 52.3095 50.8318H47.53C47.0895 50.8318 46.7334 51.2191 46.7334 51.6963V62.0701C46.7334 62.5473 47.0895 62.9346 47.53 62.9346H52.3095C52.7501 62.9346 53.1061 62.5473 53.1061 62.0701Z" fill="black"/>
<path d="M20.1803 45.9908C21.9375 45.9908 23.3666 44.4399 23.3666 42.5328V34.7524C23.3666 34.2752 23.0106 33.8879 22.57 33.8879H20.1803C19.7397 33.8879 19.3837 34.2752 19.3837 34.7524C19.3837 35.2296 19.7397 35.6169 20.1803 35.6169H21.7734V42.5328C21.7734 43.4863 21.0581 44.2618 20.1803 44.2618C19.3016 44.2618 18.5871 43.4863 18.5871 42.5328V41.6683C18.5871 41.1911 18.231 40.8038 17.7905 40.8038C17.35 40.8038 16.9939 41.1911 16.9939 41.6683V42.5328C16.9939 44.4399 18.423 45.9908 20.1803 45.9908Z" fill="black"/>
<path d="M8.14301 62.0701V56.0184L10.8665 62.4029C11.0037 62.7245 11.3267 62.9346 11.6834 62.9346C12.0401 62.9346 12.3632 62.7245 12.5004 62.4029L15.2238 56.0184V62.0701C15.2238 62.5473 15.6195 62.9346 16.1089 62.9346C16.5984 62.9346 16.994 62.5473 16.994 62.0701V51.6958C16.994 51.2834 16.6957 50.9289 16.2824 50.8485C15.862 50.7681 15.4539 50.9834 15.292 51.3638L11.6834 59.8223L8.07485 51.3629C7.93589 51.0361 7.61372 50.8442 7.2579 50.8442C7.20037 50.8442 7.14284 50.8364 7.08442 50.8477C6.67108 50.9289 6.3728 51.2834 6.3728 51.6958V62.0701C6.3728 62.5473 6.76844 62.9346 7.2579 62.9346C7.74737 62.9346 8.14301 62.5473 8.14301 62.0701Z" fill="black"/>
<path d="M33.2888 57.6215C34.5023 57.2307 35.4036 55.8916 35.4036 54.2897C35.4036 52.3827 34.1334 50.8318 32.5715 50.8318H30.4475C30.056 50.8318 29.7395 51.2191 29.7395 51.6963V62.0701C29.7395 62.5473 30.056 62.9346 30.4475 62.9346C30.839 62.9346 31.1555 62.5473 31.1555 62.0701V57.7477H31.5315L34.8591 62.6234C34.9993 62.8283 35.2011 62.9346 35.4043 62.9346C35.5643 62.9346 35.7243 62.8689 35.8574 62.734C36.1576 62.428 36.1987 61.8834 35.948 61.5168L33.2888 57.6215ZM31.1555 56.0187V52.5608H32.5715C33.3518 52.5608 33.9876 53.3362 33.9876 54.2897C33.9876 55.2433 33.3518 56.0187 32.5715 56.0187H31.1555Z" fill="black"/>
<path d="M41.7856 57.6215C42.9991 57.2307 43.9004 55.8916 43.9004 54.2897C43.9004 52.3827 42.6302 50.8318 41.0684 50.8318H38.9443C38.5528 50.8318 38.2363 51.2191 38.2363 51.6963V62.0701C38.2363 62.5473 38.5528 62.9346 38.9443 62.9346C39.3359 62.9346 39.6523 62.5473 39.6523 62.0701V57.7477H40.0283L43.3559 62.6234C43.4961 62.8283 43.6979 62.9346 43.9011 62.9346C44.0611 62.9346 44.2211 62.8689 44.3542 62.734C44.6544 62.428 44.6955 61.8834 44.4449 61.5168L41.7856 57.6215ZM39.6523 56.0187V52.5608H41.0684C41.8486 52.5608 42.4844 53.3362 42.4844 54.2897C42.4844 55.2433 41.8486 56.0187 41.0684 56.0187H39.6523Z" fill="black"/>
<path d="M40.3605 42.5328C40.3605 40.6258 38.9314 39.0749 37.1742 39.0749C36.2955 39.0749 35.581 38.2994 35.581 37.3459C35.581 36.3924 36.2955 35.6169 37.1742 35.6169C38.052 35.6169 38.7673 36.3924 38.7673 37.3459C38.7673 37.8231 39.1234 38.2104 39.5639 38.2104C40.0045 38.2104 40.3605 37.8231 40.3605 37.3459C40.3605 35.4388 38.9314 33.8879 37.1742 33.8879C35.4169 33.8879 33.9878 35.4388 33.9878 37.3459C33.9878 39.2529 35.4169 40.8038 37.1742 40.8038C38.052 40.8038 38.7673 41.5793 38.7673 42.5328C38.7673 43.4863 38.052 44.2618 37.1742 44.2618C36.2955 44.2618 35.581 43.4863 35.581 42.5328C35.581 42.0556 35.2249 41.6683 34.7844 41.6683C34.3439 41.6683 33.9878 42.0556 33.9878 42.5328C33.9878 44.4399 35.4169 45.9908 37.1742 45.9908C38.9314 45.9908 40.3605 44.4399 40.3605 42.5328Z" fill="black"/>
<path d="M50.9818 34.7524C50.9818 34.2752 50.602 33.8879 50.1321 33.8879H43.3346C42.8647 33.8879 42.4849 34.2752 42.4849 34.7524C42.4849 35.2296 42.8647 35.6169 43.3346 35.6169H45.8837V45.1263C45.8837 45.6035 46.2635 45.9908 46.7334 45.9908C47.2032 45.9908 47.5831 45.6035 47.5831 45.1263V35.6169H50.1321C50.602 35.6169 50.9818 35.2296 50.9818 34.7524Z" fill="black"/>
<path d="M28.6773 45.9908C30.4346 45.9908 31.8637 44.4399 31.8637 42.5328V34.7524C31.8637 34.2752 31.5076 33.8879 31.0671 33.8879C30.6266 33.8879 30.2705 34.2752 30.2705 34.7524V42.5328C30.2705 43.4863 29.5552 44.2618 28.6773 44.2618C27.7987 44.2618 27.0842 43.4863 27.0842 42.5328V34.7524C27.0842 34.2752 26.7281 33.8879 26.2876 33.8879C25.847 33.8879 25.491 34.2752 25.491 34.7524V42.5328C25.491 44.4399 26.9201 45.9908 28.6773 45.9908Z" fill="black"/>
<path d="M2.12424 30.257C2.12424 28.2552 3.55386 26.6262 5.31061 26.6262H62.6652C64.422 26.6262 65.8516 28.2552 65.8516 30.257V48.4113H66.9137H67.9758V30.257C67.9758 26.9203 65.5935 24.2056 62.6652 24.2056H56.6143L36.3819 8.83627C37.5004 7.96244 38.2364 6.49921 38.2364 4.84113C38.2364 2.17125 36.331 0 33.9879 0C31.6449 0 29.7394 2.17125 29.7394 4.84113C29.7394 6.49921 30.4755 7.96244 31.5939 8.83627L11.3615 24.2056H5.31061C2.38234 24.2056 0 26.9203 0 30.257V48.4113H1.06212H2.12424V30.257ZM33.9879 2.42056C35.1584 2.42056 36.1122 3.50619 36.1122 4.84113C36.1122 6.17607 35.1584 7.26169 33.9879 7.26169C32.8164 7.26169 31.8637 6.17607 31.8637 4.84113C31.8637 3.50619 32.8164 2.42056 33.9879 2.42056ZM33.9879 9.92673L52.7843 24.2056H15.1915L33.9879 9.92673Z" fill="black"/>
<path d="M65.8516 71.4066C65.8516 73.4084 64.422 75.0374 62.6652 75.0374H5.31061C3.55386 75.0374 2.12424 73.4084 2.12424 71.4066V60.514H1.06212H0V71.4066C0 74.7433 2.38234 77.458 5.31061 77.458H62.6652C65.5935 77.458 67.9758 74.7433 67.9758 71.4066V60.514H66.9137H65.8516V71.4066Z" fill="black"/>
<path d="M63.7273 70.1963H61.603V72.6169H63.7273V70.1963Z" fill="black"/>
<path d="M59.4787 70.1963H57.3545V72.6169H59.4787V70.1963Z" fill="black"/>
<path d="M55.2304 70.1963H53.1062V72.6169H55.2304V70.1963Z" fill="black"/>
<path d="M7.10866 38.1972L8.23399 38.4832L8.35004 37.3279C8.41768 36.6546 8.73103 36.0891 9.23116 35.7389C10.1955 35.0636 11.8035 35.3208 12.7668 36.6965C13.7828 38.1476 13.8366 40.3038 13.5287 42.3022C13.3796 43.27 13.1558 44.1371 12.9685 44.7633C12.9323 44.8843 12.8976 44.9959 12.8651 45.0971C12.759 45.0929 12.6423 45.0874 12.5164 45.08C11.8639 45.0418 10.9727 44.9554 10.0125 44.7645C8.02956 44.3701 6.02198 43.582 5.00586 42.1308C4.04238 40.7548 4.34993 39.1568 5.31523 38.4808C5.81493 38.131 6.45227 38.0303 7.10866 38.1972Z" fill="white" stroke="black" stroke-width="2"/>
<path d="M61.797 38.8633L60.6391 38.9496L60.7254 37.7917C60.7757 37.1168 60.5653 36.5055 60.1336 36.0738C59.3011 35.2413 57.673 35.2154 56.4854 36.4029C55.2328 37.6555 54.8054 39.7696 54.7616 41.7912C54.7404 42.7701 54.8103 43.6629 54.886 44.3122C54.9006 44.4376 54.9154 44.5535 54.9298 44.6588C55.035 44.6731 55.1509 44.6879 55.2762 44.7025C55.9254 44.7782 56.8181 44.8479 57.7969 44.8266C59.8181 44.7826 61.9321 44.355 63.1848 43.1023C64.3725 41.9145 64.3472 40.2874 63.5139 39.4541C63.0825 39.0228 62.4724 38.8129 61.797 38.8633Z" fill="white" stroke="black" stroke-width="2"/>
</svg>
