<svg width="75" height="78" viewBox="0 0 75 78" fill="none" xmlns="http://www.w3.org/2000/svg">
<path d="M39.6971 2.6784L40.4548 3.55821L41.2126 2.6784C42.1227 1.62165 43.3567 1 44.6898 1C47.2923 1 49.6182 3.44932 49.6182 6.75284C49.6182 10.2053 47.3191 13.5781 44.8143 16.1939C43.5839 17.4788 42.35 18.5334 41.4225 19.2671C41.0386 19.5707 40.7086 19.8183 40.4549 20.0034C40.2013 19.8183 39.8714 19.5708 39.4877 19.2672C38.5604 18.5335 37.3268 17.4789 36.0967 16.1941C33.5925 13.5783 31.2939 10.2055 31.2939 6.75284C31.2939 3.44903 33.6177 1 36.2223 1C37.5548 1 38.7867 1.62127 39.6971 2.6784Z" fill="white" stroke="black" stroke-width="2"/>
<path opacity="0.2" d="M46.6654 1.48783C48.3631 2.36039 49.6182 4.32614 49.6181 6.7528V6.75284C49.6181 10.2053 47.319 13.5781 44.8142 16.1939C43.5838 17.4788 42.3499 18.5334 41.4223 19.2671C41.3798 19.3007 41.338 19.3337 41.2968 19.3659C42.4984 18.2878 43.855 16.9258 45.0625 15.3634C46.916 12.9652 48.5069 9.9805 48.5069 6.75284C48.5069 4.74602 47.8189 2.88433 46.6654 1.48783Z" fill="white" stroke="black" stroke-width="2"/>
<path d="M69.9499 58.9249C69.9337 59.3089 69.9164 59.6136 69.9028 59.8264C69.8422 59.8794 69.7649 59.9428 69.6687 60.0148C69.302 60.2888 68.6555 60.6896 67.6037 61.1027C65.4964 61.9304 61.7683 62.8048 55.4366 62.8048C49.1052 62.8048 45.3817 61.9367 43.2789 61.1151C42.2294 60.7051 41.5854 60.3073 41.2208 60.0358C41.1255 59.9648 41.049 59.9022 40.989 59.85C40.9744 59.6369 40.9556 59.3311 40.9375 58.9453C40.8997 58.1362 40.8653 56.9769 40.8795 55.5844C40.9081 52.7941 41.132 49.0933 41.905 45.4083C42.6807 41.7101 43.9919 38.114 46.1367 35.4605C48.2493 32.8469 51.1893 31.1177 55.3772 31.1177C59.5658 31.1177 62.5155 32.8459 64.6414 35.4589C66.7993 38.1111 68.1272 41.7049 68.92 45.3998C69.7099 49.0816 69.951 52.7792 69.9924 55.567C70.0131 56.9582 69.984 58.1165 69.9499 58.9249Z" fill="white" stroke="black" stroke-width="2"/>
<path d="M73.6873 71.6536V76.9909H37.188V71.6536C37.188 69.7348 38.253 68.1373 39.6842 67.5783L39.7946 67.5424C41.9071 66.8919 43.4814 66.2611 44.4352 65.8423C47.7515 64.3874 48.9152 63.2211 49.2968 62.3696L49.2987 62.3652C49.3172 62.3234 49.3307 62.2871 49.3408 62.2579C49.3453 62.2448 49.349 62.2335 49.3509 62.2274L49.3544 62.2168L49.4037 62.0673L49.4047 61.9098L49.426 58.5062L61.4473 58.3457L61.4704 61.91L61.4714 62.0674L61.5207 62.2168C61.5309 62.2477 61.5407 62.2737 61.5443 62.2831L61.5444 62.2835L61.5567 62.3207L61.5766 62.3657C61.956 63.222 63.1291 64.3886 66.4388 65.8367C67.3968 66.2613 68.9674 66.8915 71.096 67.546L71.1863 67.5765C72.6216 68.1337 73.6873 69.732 73.6873 71.6536Z" fill="white" stroke="black" stroke-width="2"/>
<path d="M55.4366 36.5823H55.4366C60.7579 36.5821 65.3475 41.295 65.3475 48.9852C65.3475 52.7584 63.7611 56.5141 61.6487 59.3366C60.5961 60.7431 59.4354 61.8868 58.3191 62.67C57.1843 63.4662 56.185 63.8282 55.4366 63.8282C54.6889 63.8282 53.6901 63.4663 52.5556 62.6701C51.4395 61.8869 50.2791 60.7432 49.2265 59.3366C47.1145 56.5142 45.5281 52.7584 45.5281 48.9852C45.5281 41.2949 50.1177 36.5823 55.4366 36.5823Z" fill="white" stroke="black" stroke-width="2"/>
<path d="M45.6774 70.308V76.9905H1V70.308C1 67.8998 2.33712 65.8763 4.16972 65.1672L4.31144 65.1204C6.86481 64.3303 8.76309 63.5701 9.91302 63.0693L9.91578 63.0681C13.9275 61.3068 15.2743 59.9166 15.7012 58.9605L15.7026 58.9573L15.7041 58.9538C15.7161 58.9269 15.7523 58.8455 15.7799 58.741L15.8123 58.6185L15.8131 58.4918L15.8409 54.1535L30.8368 53.961L30.8666 58.4921L30.8675 58.6187L30.8998 58.7411C30.9272 58.8444 30.9641 58.9278 30.9733 58.9487C30.9739 58.9501 30.9744 58.9513 30.9748 58.9521L30.9748 58.9521L30.9773 58.9578C31.4022 59.9174 32.7546 61.308 36.7644 63.0633C37.9179 63.5699 39.8124 64.3295 42.3849 65.124L42.5042 65.1651C44.3409 65.8718 45.6773 67.8962 45.6774 70.308Z" fill="white" stroke="black" stroke-width="2"/>
<path d="M19.9151 76.9908L21.8103 68.3525H24.8697L26.7667 76.9908H19.9151Z" fill="white" stroke="black" stroke-width="2"/>
<path d="M65.0717 45.8717C62.1541 45.5817 59.7427 44.7842 58.0046 44.0188C57.0186 43.5845 56.2525 43.1619 55.7378 42.8515C55.4805 42.6963 55.2865 42.5694 55.1596 42.4834C55.1012 42.4439 55.0571 42.413 55.0276 42.3921L52.0113 39.5071C52.2128 39.2892 52.447 39.041 52.6925 38.7905C53.0501 38.4257 53.4188 38.0693 53.7394 37.7965C53.9001 37.6597 54.0352 37.5557 54.1408 37.485C54.2076 37.4403 54.244 37.4217 54.2539 37.4166C54.5741 37.3279 55.2253 37.0937 55.9266 36.8415C56.1105 36.7754 56.2978 36.708 56.4835 36.6417C60.5965 37.1238 64.0909 40.4852 65.0717 45.8717Z" fill="white" stroke="black" stroke-width="2"/>
<path d="M27.4014 58.9352L24.951 66.3527H21.7284L19.2762 58.9352H27.4014Z" fill="white" stroke="black" stroke-width="2"/>
<path d="M18.172 65.1828L14.4407 59.9361L15.5361 56.9596L21.6749 62.0602L18.172 65.1828Z" fill="white" stroke="black" stroke-width="2"/>
<path d="M31.9744 59.9361L28.2432 65.1828L24.7402 62.0602L30.879 56.9596L31.9744 59.9361Z" fill="white" stroke="black" stroke-width="2"/>
<path d="M35.5664 42.8244C35.5664 47.4546 33.621 52.0519 31.0396 55.5016C29.7525 57.2218 28.3298 58.6256 26.9551 59.5905C25.5618 60.5683 24.3079 61.0335 23.3397 61.0335C22.3708 61.0335 21.1166 60.5683 19.7234 59.5905C18.3486 58.6256 16.926 57.2219 15.6389 55.5017C13.0579 52.052 11.113 47.4548 11.113 42.8244C11.113 33.4171 16.74 27.5723 23.3397 27.5723C29.9395 27.5723 35.5664 33.4171 35.5664 42.8244Z" fill="white" stroke="black" stroke-width="2"/>
<path d="M31.1437 25.4941L31.1439 25.4943C34.5275 28.9848 35.6511 33.2375 35.9164 36.6728C36.0489 38.3873 35.9657 39.8808 35.8495 40.9432C35.8324 41.1005 35.8145 41.2481 35.7965 41.3854C35.6461 41.31 35.4876 41.2271 35.3254 41.1374C34.4143 40.6337 33.5867 40.023 33.2451 39.4383L33.2446 39.4373C33.0578 39.1183 32.8944 38.8146 32.7341 38.5166L32.7103 38.4724C32.5467 38.1682 32.379 37.8577 32.2045 37.5765C31.8606 37.0223 31.4017 36.4299 30.6575 36.122C29.9096 35.8126 29.0722 35.8698 28.1425 36.1391C27.2123 36.4087 26.0614 36.9287 24.5973 37.7133L24.5971 37.7134C19.9868 40.1854 15.9459 40.2664 13.0702 39.7498C11.6262 39.4904 10.4702 39.0788 9.68104 38.7356C9.47079 38.6442 9.28695 38.5578 9.13107 38.4806C9.20727 38.1924 9.30576 37.8293 9.42506 37.4089C9.74007 36.2988 10.1983 34.795 10.7723 33.2143C11.3478 31.6296 12.0314 29.9903 12.7929 28.5996C13.5698 27.1809 14.365 26.1395 15.1172 25.6224L15.1173 25.6223C18.6644 23.1837 22.1845 22.6511 25.0695 22.9819C27.998 23.3176 30.2128 24.5332 31.1437 25.4941Z" fill="white" stroke="black" stroke-width="2"/>
<path d="M55.4366 36.582C56.4097 36.582 57.3466 36.7354 58.2301 37.0294C56.5321 39.5137 52.5367 44.2247 45.7901 45.943C46.8316 40.0697 50.8499 36.582 55.4366 36.582Z" fill="white" stroke="black" stroke-width="2"/>
</svg>
